<?xml version="1.0" encoding="UTF-8"?>
<svg width="1200pt" height="1200pt" version="1.1" viewBox="0 0 1200 1200" xmlns="http://www.w3.org/2000/svg">
 <g fill="#d7644d">
  <path d="m643.78 137.75c78.223 6.3867 151.69 29.738 216.7 66.355l40.184-46.547c5.5859-6.4375 15.129-7.1875 21.594-1.5781l92.395 79.93c6.3633 5.5078 7.0859 15.207 1.5781 21.594l-34.547 40.031c93.043 95.809 150.35 226.48 150.35 370.43 0 293.61-238.42 532.03-532.03 532.03-293.61 0-532.03-238.42-532.03-532.03 0-278.87 215.07-507.93 488.25-530.22v-50.191h-55.754c-8.4297 0-15.309-6.8789-15.309-15.309v-56.941c0-8.4297 6.8789-15.309 15.309-15.309h199.07c8.4297 0 15.309 6.8789 15.309 15.309v56.941c0 8.4297-6.8789 15.309-15.309 15.309h-55.754v50.191zm-43.781 77.008c-250.45 0-453.21 202.76-453.21 453.21 0 250.45 202.76 453.21 453.21 453.21 250.45 0 453.21-202.76 453.21-453.21 0-250.45-202.76-453.21-453.21-453.21z"/>
  <path d="m598.89 667.97v-404.7c-223.53 0-404.7 181.2-404.7 404.7 0 223.5 181.17 404.7 404.7 404.7 136.23 0 263.3-68.555 338.16-182.39z"/>
 </g>
</svg>
