<?xml version="1.0" encoding="UTF-8"?>
<svg width="1200pt" height="1200pt" version="1.1" viewBox="0 0 1200 1200" xmlns="http://www.w3.org/2000/svg">
 <path d="m895.55 305.05c-3.6953-6-9.3711-10.512-16.055-12.742l-90-30c-15.781-5.2578-32.723 3.2539-37.957 18.973-5.2422 15.719 3.2539 32.711 18.973 37.945l79.668 26.555 224.61 364.99h-44.09c-31.066-53.172-96.48-90-172.23-90-61.094 0-115.46 23.988-150.56 61.141-28.957-22.453-67.066-35.293-107.89-35.293-40.824 0-78.938 12.84-107.89 35.293-35.102-37.152-89.473-61.141-150.57-61.141-75.742 0-141.17 36.828-172.22 90h-44.09l224.61-364.99 79.668-26.555c15.719-5.2422 24.215-22.223 18.961-37.945-5.2422-15.73-22.246-24.227-37.945-18.973l-90 30c-6.6836 2.2305-12.359 6.7422-16.055 12.742l-240 390c-2.9141 4.7305-4.4609 10.176-4.4609 15.723v30c0 16.57 13.43 30 30 30h60.562c-0.21484 3.0703-0.5625 6.1172-0.5625 9.2266 0 87.805 85.922 159.24 191.53 159.24 105.62 0 191.54-71.438 191.54-159.24 0-16.332-2.9883-32.102-8.5195-46.957 18.77-16.5 46.164-26.438 75.445-26.438s56.676 9.9375 75.445 26.438c-5.5195 14.844-8.5195 30.613-8.5195 46.945 0 87.805 85.922 159.24 191.53 159.24 105.62 0.011719 191.54-71.422 191.54-159.23 0-3.1211-0.34766-6.1562-0.5625-9.2266h60.562c16.57 0 30-13.43 30-30v-30c0-5.543-1.5352-10.992-4.4531-15.719zm-554.02 574.19c-72.516 0-131.53-44.508-131.53-99.238 0-54.719 59.016-99.227 131.53-99.227 53.93 0 100.33 24.625 120.61 59.746 0.46875 0.94922 0.92578 1.8711 1.5 2.7734 6.0234 11.363 9.4336 23.734 9.4336 36.707-0.003906 54.73-59.008 99.238-131.55 99.238zm516.93 0c-72.527 0-131.53-44.508-131.53-99.238 0-12.984 3.4062-25.344 9.4453-36.719 0.5625-0.88672 1.0195-1.8242 1.4766-2.7617 20.27-35.125 66.684-59.746 120.61-59.746 72.527 0 131.54 44.508 131.54 99.227-0.003906 54.73-59.02 99.238-131.55 99.238z"/>
</svg>
