<?xml version="1.0" encoding="UTF-8"?>
<svg width="1200pt" height="1200pt" version="1.1" viewBox="0 0 1200 1200" xmlns="http://www.w3.org/2000/svg">
 <g fill="#ffffff">
  <path d="m160.8 868.8c0 151.2 193.2 268.8 439.2 268.8s439.2-117.6 439.2-268.8-193.2-268.8-439.2-268.8-439.2 117.6-439.2 268.8zm439.2-208.8c136.8 0 253.2 62.398 253.2 135.6 0 73.199-116.4 134.4-253.2 134.4s-253.2-62.398-253.2-135.6c0-73.199 116.4-134.4 253.2-134.4zm-302.4 85.199c-6 15.602-9.6016 32.398-9.6016 50.398 0 109.2 138 195.6 313.2 195.6s313.2-85.199 313.2-195.6c0-18-3.6016-34.801-9.6016-50.398 48 34.801 76.801 78 76.801 123.6 0 112.8-174 208.8-379.2 208.8-205.2 0-379.2-96-379.2-208.8-2.3984-45.602 26.402-88.801 74.402-123.6z"/>
  <path d="m600 60c-16.801 0-30 13.199-30 30v348l-128.4-129.6c-12-12-31.199-12-42 0-12 12-12 31.199 0 42l180 180c6 6 13.199 8.3984 21.602 8.3984 8.3984 0 15.602-2.3984 21.602-8.3984l180-180c12-12 12-31.199 0-42-12-12-31.199-12-42 0l-130.8 129.6v-348c0-16.801-13.199-30-30-30z"/>
 </g>
</svg>
