<?xml version="1.0" encoding="UTF-8"?>
<svg width="1200pt" height="1200pt" version="1.1" viewBox="0 0 1200 1200" xmlns="http://www.w3.org/2000/svg">
 <g fill="#ffffff">
  <path d="m600 540c16.801 0 30-13.199 30-30v-348l128.4 128.4c6 6 13.199 8.3984 21.602 8.3984 8.3984 0 15.602-2.3984 21.602-8.3984 12-12 12-31.199 0-42l-180-180c-12-12-31.199-12-42 0l-180 180c-12 12-12 31.199 0 42 12 12 31.199 12 42 0l128.4-128.4v348c0 16.801 13.199 30 30 30z"/>
  <path d="m180 1140h840c16.801 0 30-13.199 30-30v-600c0-16.801-13.199-30-30-30h-240c-16.801 0-30 13.199-30 30s13.199 30 30 30h210v540h-780v-540h210c16.801 0 30-13.199 30-30s-13.199-30-30-30h-240c-16.801 0-30 13.199-30 30v600c0 16.801 13.199 30 30 30z"/>
 </g>
</svg>
