<?xml version="1.0" encoding="UTF-8"?>
<svg width="1200pt" height="1200pt" version="1.1" viewBox="0 0 1200 1200" xmlns="http://www.w3.org/2000/svg">
 <g>
  <path d="m600 630c49.199 0 90-40.801 90-90v-390c0-49.199-40.801-90-90-90s-90 40.801-90 90v390c0 49.199 40.801 90 90 90zm-30-480c0-16.801 13.199-30 30-30s30 13.199 30 30v390c0 16.801-13.199 30-30 30s-30-13.199-30-30z"/>
  <path d="m600 1140c265.2 0 480-214.8 480-480 0-148.8-67.199-286.8-184.8-378-15.602-12-36-19.199-55.199-19.199-27.602 0-54 12-70.801 34.801-14.398 19.199-21.602 42-18 66 2.3984 24 14.398 45.602 33.602 60 73.199 57.602 115.2 144 115.2 236.4 0 165.6-134.4 300-300 300s-300-134.4-300-300c0-92.398 42-178.8 115.2-236.4 19.199-14.398 31.199-36 33.602-60 2.3984-24-3.6016-48-18-66-16.801-21.602-43.199-34.801-70.801-34.801-20.398 0-39.602 7.1992-55.199 19.199-117.6 91.199-184.8 229.2-184.8 378 0 265.2 214.8 480 480 480zm-258-811.2c7.1992-4.8008 13.199-6 18-6 9.6016 0 18 4.8008 24 12 4.8008 6 7.1992 14.398 6 21.602-1.1992 8.3984-4.8008 15.602-10.801 20.398-88.801 68.398-139.2 171.6-139.2 283.2 0 198 162 360 360 360s360-162 360-360c0-111.6-50.398-214.8-138-283.2-6-4.8008-10.801-12-10.801-20.398-1.1992-8.3984 1.1992-15.602 6-21.602 6-7.1992 14.398-12 24-12 4.8008 0 12 1.1992 18 6 102 80.398 160.8 201.6 160.8 331.2 0 231.6-188.4 420-420 420s-420-188.4-420-420c0-129.6 58.801-250.8 162-331.2z"/>
 </g>
</svg>
