<?xml version="1.0" encoding="UTF-8"?>
<svg width="1200pt" height="1200pt" version="1.1" viewBox="0 0 1200 1200" xmlns="http://www.w3.org/2000/svg">
 <g fill="#ffffff">
  <path d="m1011.6 68.398c-6-4.7969-13.203-8.3984-21.602-8.3984h-900c-16.801 0-30 13.199-30 30v1020c0 16.801 13.199 30 30 30h1020c16.801 0 30-13.199 30-30v-900c0-8.3984-3.6016-15.602-8.3984-21.602zm-531.6 51.602h390v270h-390zm-150 0h90v270h-90zm750 960h-960v-960h150v300c0 16.801 13.199 30 30 30h600c16.801 0 30-13.199 30-30v-300h48l102 102z"/>
  <path d="m810 150h-90c-16.801 0-30 13.199-30 30v150c0 16.801 13.199 30 30 30h90c16.801 0 30-13.199 30-30v-150c0-16.801-13.199-30-30-30zm-30 150h-30v-90h30z"/>
  <path d="m930 690h-660c-16.801 0-30 13.199-30 30s13.199 30 30 30h660c16.801 0 30-13.199 30-30s-13.199-30-30-30z"/>
  <path d="m930 810h-660c-16.801 0-30 13.199-30 30s13.199 30 30 30h660c16.801 0 30-13.199 30-30s-13.199-30-30-30z"/>
  <path d="m930 930h-660c-16.801 0-30 13.199-30 30s13.199 30 30 30h660c16.801 0 30-13.199 30-30s-13.199-30-30-30z"/>
 </g>
</svg>
