<?xml version="1.0" encoding="UTF-8"?>
<svg width="1200pt" height="1200pt" version="1.1" viewBox="0 0 1200 1200" xmlns="http://www.w3.org/2000/svg">
 <g fill="#ffffff">
  <path d="m600 300c-16.801 0-30 13.199-30 30v270c0 16.801 13.199 30 30 30h150c16.801 0 30-13.199 30-30s-13.199-30-30-30h-120v-240c0-16.801-13.199-30-30-30z"/>
  <path d="m188.4 681.6c6 6 13.199 8.3984 21.602 8.3984 8.3984 0 15.602-2.3984 21.602-8.3984l120-120c12-12 12-31.199 0-42-12-12-31.199-12-42 0l-69.602 67.199c7.1992-192 165.6-346.8 360-346.8 198 0 360 162 360 360s-162 360-360 360c-16.801 0-30 13.199-30 30s13.199 30 30 30c231.6 0 420-188.4 420-420s-188.4-420-420-420c-228 0-412.8 182.4-420 408l-69.602-69.602c-12-12-31.199-12-42 0-12 12-12 31.199 0 42z"/>
 </g>
</svg>
