<?xml version="1.0" encoding="UTF-8"?>
<svg width="1200pt" height="1200pt" version="1.1" viewBox="0 0 1200 1200" xmlns="http://www.w3.org/2000/svg">
 <path d="m1110 330h-210v-180c0-16.801-13.199-30-30-30h-780c-16.801 0-30 13.199-30 30v540c0 16.801 13.199 30 30 30h60v120c0 13.199 9.6016 25.199 21.602 28.801 2.3984 1.1992 4.8008 1.1992 8.3984 1.1992 10.801 0 20.398-4.8008 25.199-14.398l81.602-135.6h13.199v180c0 16.801 13.199 30 30 30h583.2l81.602 135.6c6 9.6016 15.602 14.398 25.199 14.398 2.3984 0 4.8008 0 8.3984-1.1992 13.199-3.6016 21.602-15.602 21.602-28.801v-120h60c16.801 0 30-13.199 30-30v-540c0-16.801-13.199-30-30-30zm-30 540h-60c-16.801 0-30 13.199-30 30v42l-34.801-57.602c-6-9.6016-15.602-14.398-25.199-14.398h-570v-150h510c16.801 0 30-13.199 30-30v-300h180zm-835.2-195.6-34.801 57.602v-42c0-16.801-13.199-30-30-30h-60v-480h720v480h-570c-10.801 0-20.398 6-25.199 14.398z"/>
</svg>
