<?xml version="1.0" encoding="UTF-8"?>
<svg width="1200pt" height="1200pt" version="1.1" viewBox="0 0 1200 1200" xmlns="http://www.w3.org/2000/svg">
 <g>
  <path d="m806.25 225h-337.5c-20.625 0-37.5 16.875-37.5 37.5v131.25c0 20.625 16.875 37.5 37.5 37.5h337.5c20.625 0 37.5-16.875 37.5-37.5v-131.25c0-20.625-16.875-37.5-37.5-37.5zm0 150c0 11.25-7.5 18.75-18.75 18.75h-300c-11.25 0-18.75-7.5-18.75-18.75v-93.75c0-11.25 7.5-18.75 18.75-18.75h300c11.25 0 18.75 7.5 18.75 18.75z"/>
  <path d="m993.75 0h-787.5c-41.25 0-75 33.75-75 75v918.75c0 41.25 33.75 75 75 75h56.25c11.25 0 18.75-7.5 18.75-18.75s-7.5-18.75-18.75-18.75h-56.25c-20.625 0-37.5-16.875-37.5-37.5v-37.5h862.5v37.5c0 20.625-16.875 37.5-37.5 37.5h-506.25c-11.25 0-18.75 7.5-18.75 18.75s7.5 18.75 18.75 18.75h506.25c41.25 0 75-33.75 75-75v-918.75c0-41.25-33.75-75-75-75zm-825 918.75v-843.75c0-20.625 16.875-37.5 37.5-37.5h787.5c20.625 0 37.5 16.875 37.5 37.5v843.75z"/>
  <path d="m412.5 993.75c-11.25 0-18.75 7.5-18.75 18.75v131.25c0 11.25-7.5 18.75-18.75 18.75s-18.75-7.5-18.75-18.75v-131.25c0-11.25-7.5-18.75-18.75-18.75s-18.75 7.5-18.75 18.75v150c0 20.625 16.875 37.5 37.5 37.5h37.5c20.625 0 37.5-16.875 37.5-37.5v-150c0-11.25-7.5-18.75-18.75-18.75z"/>
  <path d="m225 75c-11.25 0-18.75 7.5-18.75 18.75v768.75c0 11.25 7.5 18.75 18.75 18.75s18.75-7.5 18.75-18.75v-768.75c0-11.25-7.5-18.75-18.75-18.75z"/>
 </g>
</svg>
