<?xml version="1.0" encoding="UTF-8"?>
<svg width="1200pt" height="1200pt" version="1.1" viewBox="0 0 1200 1200" xmlns="http://www.w3.org/2000/svg">
 <g>
  <path d="m570 1017v93.023c0 16.57 13.43 30 30 30s30-13.43 30-30v-93.023c68.375-13.945 120-74.531 120-146.98s-51.625-133.03-120-146.98v-633.02c0-16.57-13.43-30-30-30s-30 13.43-30 30v633.02c-68.375 13.945-120 74.531-120 146.98s51.625 133.03 120 146.98zm30-236.98c49.633 0 90 40.367 90 90s-40.367 90-90 90-90-40.367-90-90 40.367-90 90-90z"/>
  <path d="m210 446.98v663.02c0 16.57 13.43 30 30 30s30-13.43 30-30v-663.02c68.375-13.945 120-74.531 120-146.98s-51.625-133.03-120-146.98v-63.023c0-16.57-13.43-30-30-30s-30 13.43-30 30v63.023c-68.375 13.945-120 74.531-120 146.98s51.625 133.03 120 146.98zm30-236.98c49.633 0 90 40.367 90 90s-40.367 90-90 90-90-40.367-90-90 40.367-90 90-90z"/>
  <path d="m930 656.98v453.02c0 16.57 13.43 30 30 30s30-13.43 30-30v-453.02c68.375-13.945 120-74.531 120-146.98s-51.625-133.03-120-146.98v-273.02c0-16.57-13.43-30-30-30s-30 13.43-30 30v273.02c-68.375 13.945-120 74.531-120 146.98s51.625 133.03 120 146.98zm30-236.98c49.633 0 90 40.367 90 90s-40.367 90-90 90-90-40.367-90-90 40.367-90 90-90z"/>
 </g>
</svg>
