<?xml version="1.0" encoding="UTF-8"?>
<svg width="1200pt" height="1200pt" version="1.1" viewBox="0 0 1200 1200" xmlns="http://www.w3.org/2000/svg">
 <g fill="#ffffff">
  <path d="m990 300h-780c-16.801 0-30 13.199-30 30v540c0 16.801 13.199 30 30 30h60v120c0 13.199 9.6016 25.199 21.602 28.801 2.3984 1.1992 4.8008 1.1992 8.3984 1.1992 10.801 0 20.398-4.8008 25.199-14.398l81.602-135.6h583.2c16.801 0 30-13.199 30-30v-540c0-16.801-13.199-30-30-30zm-30 540h-570c-10.801 0-20.398 6-25.199 14.398l-34.801 57.602v-42c0-16.801-13.199-30-30-30h-60v-480h720z"/>
  <path d="m660 600c0 33.137-26.863 60-60 60s-60-26.863-60-60 26.863-60 60-60 60 26.863 60 60"/>
  <path d="m810 600c0 33.137-26.863 60-60 60s-60-26.863-60-60 26.863-60 60-60 60 26.863 60 60"/>
  <path d="m510 600c0 33.137-26.863 60-60 60s-60-26.863-60-60 26.863-60 60-60 60 26.863 60 60"/>
 </g>
</svg>
