<?xml version="1.0" encoding="UTF-8"?>
<svg width="1200pt" height="1200pt" version="1.1" viewBox="0 0 1200 1200" xmlns="http://www.w3.org/2000/svg">
 <g fill="#ffffff">
  <path d="m1110 270h-1020c-16.801 0-30 13.199-30 30v600c0 16.801 13.199 30 30 30h1020c16.801 0 30-13.199 30-30v-600c0-16.801-13.199-30-30-30zm-30 600h-960v-540h960z"/>
  <path d="m210 750c-16.801 0-30 13.199-30 30s13.199 30 30 30h180c16.801 0 30-13.199 30-30s-13.199-30-30-30h-60v-300h60c16.801 0 30-13.199 30-30s-13.199-30-30-30h-180c-16.801 0-30 13.199-30 30s13.199 30 30 30h60v300z"/>
 </g>
</svg>
